<svg xmlns="http://www.w3.org/2000/svg" width="170" height="32" viewBox="0 0 170 32">
  <defs>
    <style>
      .cls-1, .cls-3 {
        fill: #fff;
      }

      .cls-1 {
        opacity: 0;
      }

      .cls-2 {
        fill: #fbc34e;
      }
    </style>
  </defs>
  <g id="Group_8761" data-name="Group 8761" transform="translate(-2802 20776)">
    <rect id="Rectangle_5303" data-name="Rectangle 5303" class="cls-1" width="170" height="32" transform="translate(2802 -20776)"/>
    <g id="XMLID_2_" transform="translate(2802 -20766.998)">
      <path id="XMLID_34_" class="cls-2" d="M21.76,4.7C22.027,3.1,20.592.9,16.587.9H6.708A4.6,4.6,0,0,0,2,4.638L0,15.184H14.117c4.172-.033,6.541-.968,6.975-3.972.3-2.036-1.5-3.337-2.937-3.6C19.624,7.308,21.393,6.807,21.76,4.7Z" transform="translate(0 -0.602)"/>
      <path id="XMLID_33_" class="cls-3" d="M16.413,8.335c-1,1.268-4.672,5.707-5.407,6.541-1.669,1.869-5.073,1.6-5.106,1.569,0,0,1.235-5.807,1.635-7.476C8.637,4.53,12.408,5.6,12.408,5.6a2.836,2.836,0,0,0-1.7,1.035c-.734.934-1.535,5.373-2,7.476,2.169-2.536,5.14-5.774,5.64-6.408a6.777,6.777,0,0,1,5.54-2.236S18.549,5.665,16.413,8.335Z" transform="translate(-3.931 -3.631)"/>
      <path id="XMLID_19_" d="M92.473,14.583,100.283.3H97.546l-5.74,11.214L90.37.3H87.3l2.637,14.284Zm12.115-5.607-.834,4.506c-.5.033-.8.033-1.7.033-1.335-.033-2.47-.567-2.269-1.9.267-1.9,2.069-2.436,4.806-2.637m2.9-1.3c.5-2.637-1.569-3.638-4.038-3.638a8.272,8.272,0,0,0-3.5.6l-.8,1.569a9.246,9.246,0,0,1,3.538-.634c1.468,0,2.47.434,2.2,1.769l-.1.534c-4.038.234-7.276,1.135-7.71,3.7-.3,1.836,1.635,3.171,4.873,3.171,1.669,0,3.137-.067,4.239-.167Zm7.276,1.335,5.24-4.706h-2.9l-4.939,4.706L113.8.3h-2.737l-2.7,14.284H111.1l1-5.307,3.271,5.273h3.2Zm7.476,5.54L124.179,4.3h-2.57l-1.936,10.246ZM134.091.7a2.137,2.137,0,0,1,.868-.467c-3.2-.734-6.675.267-7.209,2.837L127.516,4.3h-1.769l-.267,1.468h1.769l-1.669,8.777h2.7l1.635-8.777h2.069l.3-1.468h-2.036l.133-.768c.234-1.3.7-2.536,3.3-2.136a1.337,1.337,0,0,1,.4-.7m8.277,3.337c-.267,1.468-1.435,2.336-4.439,2.269-.868-.033-1.068-.067-1.068-.067l.834-4.472a5.194,5.194,0,0,1,1.869-.334c2.069,0,3.137.868,2.8,2.6m-5.707,3.571.834-.033c3.371-.1,4.372,1.268,4,3.07-.367,1.735-1.869,2.47-3.9,2.47-.834,0-1.268,0-2-.033ZM145.3,3.9C145.572,2.268,144,0,139.9,0c-2.036,0-4.839.467-5.106,2l-2.336,12.549a36.582,36.582,0,0,0,4.939.133c4.272-.033,6.742-1,7.209-4.072.3-2.1-1.535-3.438-3.037-3.738,1.5-.267,3.337-.768,3.738-2.97m7.609,5.073-.834,4.506c-.5.033-.8.033-1.7.033-1.335-.033-2.47-.567-2.269-1.9.267-1.9,2.069-2.436,4.806-2.637m2.9-1.3C156.318,5,154.283,4,151.78,4a8.272,8.272,0,0,0-3.5.6l-.8,1.6a9.246,9.246,0,0,1,3.538-.634c1.468,0,2.47.434,2.2,1.769l-.1.534c-4.038.234-7.276,1.135-7.71,3.7-.3,1.836,1.635,3.171,4.873,3.171,1.669,0,3.137-.067,4.239-.167Zm11.915-.4c.3-1.669-.634-3.137-4.405-3.137a14.035,14.035,0,0,0-4.973.8l-1.836,9.645h2.77l1.6-8.611a5.415,5.415,0,0,1,2.036-.367c1.8,0,2.236.834,2.1,1.7l-1.368,7.309h2.67Zm4.472,1.7h-.033L173.807.332H171.07l-2.7,14.251H171.1l.968-5.206h.033l3.237,5.24h3.2l-3.8-5.607,5.24-4.706h-2.9Z" transform="translate(-58.164 0)"/>
    </g>
  </g>
</svg>
